<svg xmlns="http://www.w3.org/2000/svg" viewBox="0 0 410 404"><defs><linearGradient id="a" x1="6.153" x2="223.56" y1="391.01" y2="-53.919" gradientUnits="userSpaceOnUse"><stop stop-color="#41d1ff"/><stop offset="1" stop-color="#bd34fe"/></linearGradient><linearGradient id="b" x1="139.16" x2="309.02" y1="353.22" y2="67.447" gradientUnits="userSpaceOnUse"><stop stop-color="#ffea83"/><stop offset=".083" stop-color="#ffdd35"/><stop offset="1" stop-color="#ffa800"/></linearGradient></defs><path fill="url(#a)" d="m399.6 59.536-183.7 327.2c-6.8 12.2-24.5 12.2-31.3 0L10.403 59.536c-7.2-12.8 2-28.8 16.3-28.8h356.7c14.3 0 23.5 16 16.3 28.8z"/><path fill="url(#b)" d="M292.04 1.574c-58.9-2.5-114.1 30-140.83 85.27l-6.8 14.406c-2.3 4.883 2.64 10.027 7.73 7.996l15.28-5.985c38.75-15.19 82.83 7.474 92.05 47.29l1.17 5.008c1.22 5.244 8.34 6.515 11.31 1.97l1.7-2.574c24.8-37.55 67.1-60.59 112.46-61.01 6.46-.059 10.26-7.31 6.56-12.82l-13.7-19.606C357.34 25.574 326.84 3.074 292.04 1.574z"/></svg>
